<svg xmlns="http://www.w3.org/2000/svg"
	 viewBox="0 0 640 216">     
<path d="M486.4,243.6c-1.4-23.4-3.2-32.2-7.8-41.3c-3-6-10.1-15.8-12.8-20.3c0.6-0.6,79.5-44.6,113.5-81.8
	c3.6-3.9,6.1-7.5,9.6-11.3c12.9-14.3,46.4-65.6,46.6-80.9c-13.9-5.1-58.4,10.4-72.6,15.5c-25.2,9-40.8,15.8-60.7,29.7
	c-19.1,13.2-33.7,26.9-48.1,41.1c-7.7,7.6-13.1,14.5-21.1,22.8l-19,24.7c-5.8-1.8-12.5-6.7-20.6-9.3c-40.1-12.8-89.7-9.6-129.6,2.6
	c-7.5,2.3-15.4,5.2-22.1,8.1c-5.1,2.3-15.8,8.5-19.6,9.5c-6.9-12.8-19.4-28.9-28.9-40.3l-16.5-17.9c-2-2.1-4.1-3.4-6.1-5.3
	l-18.4-15.9c-24.2-19.4-48.6-33.4-77.6-46.6C65.2,22.3,12.6,2.2,4,13.7C-2.9,23,29.8,66.7,34.2,72.5c14,18.5,28.1,33.4,42.6,48.2
	c4.1,4.2,7.1,6.5,12.1,10.7c2.5,2.1,3.8,3.1,6.4,5c2.3,1.7,3.8,3.4,6.2,5.2c16.7,12.4,63.6,46.7,81.7,53
	c-0.6,5.9-8.6,15.5-11.3,21.9c-3.7,8.6-2.2,20.3-1.1,30.7c0,0,4.8,11.7,4,0c-0.8-13.2,0-26.1,8.9-42.7c9.8-18.3,18-19.7,16.9-27.2
	c-6.4,0-7.8,8.6-15.7,14c-10.4-4-36.3-20.6-46.1-27.2c-9.7-6.5-55-40.5-59.9-50.6C68.6,92.3,54.6,47.8,57.2,25.3
	c10.5,0.8,41.8,17.8,50.9,23c16.7,9.5,30.5,20.4,43.9,31.2c7,5.7,13.4,12,19.7,18.4c17.7,18.2,28.2,27.7,43.3,50.4
	c2.2,3.3,4.6,8.4,7.3,11c19-4.9,48.5-42.2,149-24.9c8.1,1.4,15.8,3.1,23.4,5.5c5.6,1.7,17.6,6.9,22.3,7c25.9-32.2,30.4-45,67-72.8
	c17.3-13.2,69-47.1,90.9-50c1,10.4-10.1,72.1-14.9,86.1c-3.7,10.7-49.7,41.3-58.1,46.6c-7.2,4.6-14.1,8.7-21.9,13
	c-21.8,11.8-14.3,8.8-22.6,5c1.6,7.4,12.5,19.8,16.5,28.7c5.6,12.5,6.3,19.1,7.7,40.7L486.4,243.6z"/>
</svg>
